HIERARCHY
ROOT pelvis
{
  OFFSET 0 100 0
  CHANNELS 6 Xposition Yposition Zposition Zrotation Xrotation Yrotation
  JOINT pelvis_right_femur
  {
    OFFSET -10.78128 -3.44521 -0.5502486
    CHANNELS 3 Zrotation Xrotation Yrotation
    JOINT right_femur_tibia
    {
      OFFSET -0.8047443 -44.0398 -0.1307829
      CHANNELS 3 Zrotation Xrotation Yrotation
      JOINT right_tibia_foot
      {
        OFFSET 3.006224 -47.83518 -5
        CHANNELS 3 Zrotation Xrotation Yrotation
        End Site
        {
          OFFSET 0 -5 15
        }
      }
    }
  }
  JOINT pelvis_left_femur
  {
    OFFSET 10.78128 -3.44521 -0.5502486
    CHANNELS 3 Zrotation Xrotation Yrotation
    JOINT left_femur_tibia
    {
      OFFSET 0.8047443 -44.0398 -0.1307829
      CHANNELS 3 Zrotation Xrotation Yrotation
      JOINT left_tibia_foot
      {
        OFFSET -4.370144 -48.10324 -4.275266
        CHANNELS 3 Zrotation Xrotation Yrotation
        End Site
        {
          OFFSET 0 -5 15
        }
      }
    }
  }
  JOINT pelvis_spine1
  {
    OFFSET 0 6.468898 -3.129235
    CHANNELS 3 Zrotation Xrotation Yrotation
    JOINT spine1
    {
      OFFSET 0 23.15396 4.99043
      CHANNELS 3 Zrotation Xrotation Yrotation
      JOINT spine2
      {
        OFFSET 0 20.79997 -5.064912
        CHANNELS 3 Zrotation Xrotation Yrotation
        JOINT neck
        {
          OFFSET 0 14.38658 9.616178
          CHANNELS 3 Zrotation Xrotation Yrotation
          End Site
          {
            OFFSET 0 20 0
          }
        }
      }
      JOINT right_manubrium
      {
        OFFSET -5.722621 16.35077 3.967754
        CHANNELS 3 Zrotation Xrotation Yrotation
        JOINT right_clavicle
        {
          OFFSET -13.16364 1.694482 -4.693211
          CHANNELS 3 Zrotation Xrotation Yrotation
          JOINT right_humerus
          {
            OFFSET -28.5034 -0.3100689 -2.792744
            CHANNELS 3 Zrotation Xrotation Yrotation
            JOINT right_radius
            {
              OFFSET -25.15693 0.02248979 -1.271978
              CHANNELS 3 Zrotation Xrotation Yrotation
              End Site
              {
                OFFSET -15 0 0
              }
            }
          }
        }
      }
      JOINT left_manubrium
      {
        OFFSET 5.722621 16.35077 3.967754
        CHANNELS 3 Zrotation Xrotation Yrotation
        JOINT left_clavicle
        {
          OFFSET 13.16364 1.694482 -4.693211
          CHANNELS 3 Zrotation Xrotation Yrotation
          JOINT left_humerus
          {
            OFFSET 29.39168 -1.063119 -2.237045
            CHANNELS 3 Zrotation Xrotation Yrotation
            JOINT left_radius
            {
              OFFSET 24.59957 -0.9528479 0.9047498
              CHANNELS 3 Zrotation Xrotation Yrotation
              End Site
              {
                OFFSET 15 -0 -0
              }
            }
          }
        }
      }
    }
  }
}
MOTION
Frames: 7
Frame Time: 0.0416666666667
-902.968 107.7016 -355.1029 10.35921 2.407587 110.2238 6.203209 18.13593 2.338602 -0 21.46227 -0 -11.02851 -17.15004 -4.437371 5.02828 -18.881 -4.132375 -0 13.74781 -0 3.217178 1.735816 16.37443 1.351116 -4.847197 7.923844 0.4765257 16.69116 -6.345053 1.49204 19.99201 0.9305783 -0.2121379 -17.26766 4.126475 -2.216222 -32.51792 12.67144 89.23312 14.96639 -9.501213 -0 0 31.45701 -21.54029 17.38758 12.35132 1.167971 -22.61262 -8.612732 -98.03742 11.90238 40.21704 0 0 -0.1255953 5.291919 16.64666 4.849571
-898.534 107.6932 -357.8481 10.37973 2.316575 109.726 6.203209 18.13593 2.338602 -0 21.46227 -0 -11.02851 -17.15004 -4.437371 5.02828 -18.881 -4.132375 -0 13.74781 -0 3.217178 1.735816 16.37443 1.351116 -4.847197 7.923844 0.4765257 16.69116 -6.345053 1.49204 19.99201 0.9305783 -0.2121379 -17.26766 4.126475 -2.216222 -32.51792 12.67144 89.23312 14.96639 -9.501213 -0 0 31.45701 -21.54029 17.38758 12.35132 1.167971 -22.61262 -8.612732 -98.03742 11.90238 40.21704 0 0 -0.1255953 5.291919 16.64666 4.849571
-894.076 107.6848 -360.554 10.39945 2.225388 109.2283 6.203209 18.13593 2.338602 -0 21.46227 -0 -11.02851 -17.15004 -4.437371 5.02828 -18.881 -4.132375 -0 13.74781 -0 3.217178 1.735816 16.37443 1.351116 -4.847197 7.923844 0.4765257 16.69116 -6.345053 1.49204 19.99201 0.9305783 -0.2121379 -17.26766 4.126475 -2.216222 -32.51792 12.67144 89.23312 14.96639 -9.501213 -0 0 31.45701 -21.54029 17.38758 12.35132 1.167971 -22.61262 -8.612732 -98.03742 11.90238 40.21704 0 0 -0.1255953 5.291919 16.64666 4.849571
-889.5944 107.6764 -363.2205 10.41838 2.134033 108.7306 6.203209 18.13593 2.338602 -0 21.46227 -0 -11.02851 -17.15004 -4.437371 5.02828 -18.881 -4.132375 -0 13.74781 -0 3.217178 1.735816 16.37443 1.351116 -4.847197 7.923844 0.4765257 16.69116 -6.345053 1.49204 19.99201 0.9305783 -0.2121379 -17.26766 4.126475 -2.216222 -32.51792 12.67144 89.23312 14.96639 -9.501213 -0 0 31.45701 -21.54029 17.38758 12.35132 1.167971 -22.61262 -8.612732 -98.03742 11.90238 40.21704 0 0 -0.1255953 5.291919 16.64666 4.849571
-885.0893 107.668 -365.8473 10.43651 2.042518 108.233 6.203209 18.13593 2.338602 -0 21.46227 -0 -11.02851 -17.15004 -4.437371 5.02828 -18.881 -4.132375 -0 13.74781 -0 3.217178 1.735816 16.37443 1.351116 -4.847197 7.923844 0.4765257 16.69116 -6.345053 1.49204 19.99201 0.9305783 -0.2121379 -17.26766 4.126475 -2.216222 -32.51792 12.67144 89.23312 14.96639 -9.501213 -0 0 31.45701 -21.54029 17.38758 12.35132 1.167971 -22.61262 -8.612732 -98.03742 11.90238 40.21704 0 0 -0.1255953 5.291919 16.64666 4.849571
-880.5613 107.6596 -368.4343 10.45385 1.950849 107.7355 6.203209 18.13593 2.338602 -0 21.46227 -0 -11.02851 -17.15004 -4.437371 5.02828 -18.881 -4.132375 -0 13.74781 -0 3.217178 1.735816 16.37443 1.351116 -4.847197 7.923844 0.4765257 16.69116 -6.345053 1.49204 19.99201 0.9305783 -0.2121379 -17.26766 4.126475 -2.216222 -32.51792 12.67144 89.23312 14.96639 -9.501213 -0 0 31.45701 -21.54029 17.38758 12.35132 1.167971 -22.61262 -8.612732 -98.03742 11.90238 40.21704 0 0 -0.1255953 5.291919 16.64666 4.849571
-876.0106 107.6512 -370.9812 10.47039 1.859032 107.238 6.203209 18.13593 2.338602 -0 21.46227 -0 -11.02851 -17.15004 -4.437371 5.02828 -18.881 -4.132375 -0 13.74781 -0 3.217178 1.735816 16.37443 1.351116 -4.847197 7.923844 0.4765257 16.69116 -6.345053 1.49204 19.99201 0.9305783 -0.2121379 -17.26766 4.126475 -2.216222 -32.51792 12.67144 89.23312 14.96639 -9.501213 -0 0 31.45701 -21.54029 17.38758 12.35132 1.167971 -22.61262 -8.612732 -98.03742 11.90238 40.21704 0 0 -0.1255953 5.291919 16.64666 4.849571
